<?xml version="1.0" encoding="UTF-8"?>
<svg xmlns="http://www.w3.org/2000/svg" width="600" height="600" viewBox="0 0 600 600">
  <g fill="#111" fill-rule="evenodd">
  <polygon points="570.0,300.0 432.0,328.1 546.7,409.8 409.2,379.4 480.7,500.6 367.5,416.9 383.4,556.8 314.1,434.3 271.8,568.5 258.3,428.4 165.0,533.8 209.7,400.3 81.6,458.7 176.7,354.9 35.9,356.1 165.0,300.0 35.9,243.9 176.7,245.1 81.6,141.3 209.7,199.7 165.0,66.2 258.3,171.6 271.8,31.5 314.1,165.7 383.4,43.2 367.5,183.1 480.7,99.4 409.2,220.6 546.7,190.2 432.0,271.9"/>
  <circle cx="300" cy="300" r="81"/>
  </g>
</svg>
